<svg xmlns="http://www.w3.org/2000/svg" viewBox="0 0 188 48" fill="none" role="img" aria-label="Figgy">
  <defs>
    <linearGradient id="fbody" x1="10" y1="12" x2="40" y2="46" gradientUnits="userSpaceOnUse">
      <stop offset="0" stop-color="#a3e635"/>
      <stop offset="0.55" stop-color="#65a30d"/>
      <stop offset="1" stop-color="#3f6212"/>
    </linearGradient>
    <linearGradient id="fleaf" x1="20" y1="2" x2="34" y2="16" gradientUnits="userSpaceOnUse">
      <stop offset="0" stop-color="#bef264"/>
      <stop offset="1" stop-color="#4d7c0f"/>
    </linearGradient>
  </defs>
  <path d="M24 45.5C13.8 45.5 7.5 37.7 8.6 28.8 9.6 20.6 15.7 15.5 24 15.5s14.4 5.1 15.4 13.3C40.5 37.7 34.2 45.5 24 45.5Z" fill="url(#fbody)"/>
  <path d="M17 22.5c-2.6 1.9-4 5-4.2 8.4-.1 1.6 1.9 2 2.6.6 1-2.1 2.4-4.3 4.5-5.9 1.4-1.1.4-4.2-2.9-3.1Z" fill="#ffffff" opacity="0.28"/>
  <path d="M24 16.5c-.3-3.2.2-5.8 1.7-8" stroke="#4d7c0f" stroke-width="2.4" stroke-linecap="round"/>
  <path d="M25.5 9.2c2.8-4.1 7.3-5.4 11.3-4.9.7.1 1 .9.6 1.5-2.2 3.6-5.8 6.2-10.6 6-1.4-.1-2.1-1.5-1.3-2.6Z" fill="url(#fleaf)"/>
  <g fill="#fde68a" opacity="0.9">
    <circle cx="21" cy="33" r="1.5"/><circle cx="27" cy="31.5" r="1.5"/><circle cx="24.5" cy="37" r="1.5"/><circle cx="29.5" cy="36" r="1.3"/><circle cx="19" cy="38" r="1.3"/>
  </g>
  <text x="52" y="34" font-family="ui-rounded, 'SF Pro Rounded', 'Segoe UI', system-ui, -apple-system, sans-serif" font-size="30" font-weight="800" letter-spacing="-0.5" fill="#65a30d">Figgy</text>
</svg>
