<svg xmlns="http://www.w3.org/2000/svg" viewBox="0 0 100 100" role="img" aria-label="jade">
<path d="M29.54 28.259999999999998 l-7 -16 l16 6 Z" fill="#5eead4" stroke="#0f766e" stroke-width="2" stroke-linejoin="round"/>
  <path d="M70.46000000000001 28.259999999999998 l7 -16 l-16 6 Z" fill="#5eead4" stroke="#0f766e" stroke-width="2" stroke-linejoin="round"/>
<path d="M50.0 21.0 L54.6 24.7 L60.2 22.6 L63.5 27.5 L69.4 27.3 L71.0 33.0 L76.7 34.6 L76.5 40.5 L81.4 43.8 L79.3 49.4 L83.0 54.0 L79.3 58.6 L81.4 64.2 L76.5 67.5 L76.7 73.4 L71.0 75.0 L69.4 80.7 L63.5 80.5 L60.2 85.4 L54.6 83.3 L50.0 87.0 L45.4 83.3 L39.8 85.4 L36.5 80.5 L30.6 80.7 L29.0 75.0 L23.3 73.4 L23.5 67.5 L18.6 64.2 L20.7 58.6 L17.0 54.0 L20.7 49.4 L18.6 43.8 L23.5 40.5 L23.3 34.6 L29.0 33.0 L30.6 27.3 L36.5 27.5 L39.8 22.6 L45.4 24.7 Z" fill="#5eead4" stroke="#0f766e" stroke-width="2" stroke-linejoin="round"/>
<circle cx="30" cy="62" r="4.5" fill="#14b8a6" opacity="0.5"/>
  <circle cx="70" cy="62" r="4.5" fill="#14b8a6" opacity="0.5"/>
<g>
  <ellipse cx="37" cy="52" rx="10" ry="12" fill="#fff" stroke="#1e293b" stroke-width="1.3"/>
  <ellipse cx="63" cy="52" rx="10" ry="12" fill="#fff" stroke="#1e293b" stroke-width="1.3"/>
  <circle cx="39" cy="54" r="5" fill="#1e293b"/>
  <circle cx="65" cy="54" r="5" fill="#1e293b"/>
  <circle cx="40.8" cy="52.2" r="1.7" fill="#fff"/>
  <circle cx="66.8" cy="52.2" r="1.7" fill="#fff"/>
  </g>
<path d="M43 70 q7 8 14 0" stroke="#1e293b" stroke-width="2" fill="none" stroke-linecap="round"/>
<g transform="translate(64 60)"><rect x="0" y="14" width="5" height="10" rx="1" fill="#0f766e"/><rect x="7" y="8" width="5" height="16" rx="1" fill="#0f766e"/><rect x="14" y="2" width="5" height="22" rx="1" fill="#0f766e"/><path d="M-2 16 l10 -8 6 4 10 -12" fill="none" stroke="#f59e0b" stroke-width="2.5"/><path d="M24 0 l0 6 -6 0Z" fill="#f59e0b"/></g>
</svg>