<svg xmlns="http://www.w3.org/2000/svg" viewBox="0 0 100 100" role="img" aria-label="jinx">
<path d="M29.54 28.259999999999998 l-7 -16 l16 6 Z" fill="#67e8f9" stroke="#0e7490" stroke-width="2" stroke-linejoin="round"/>
  <path d="M70.46000000000001 28.259999999999998 l7 -16 l-16 6 Z" fill="#67e8f9" stroke="#0e7490" stroke-width="2" stroke-linejoin="round"/>
<path d="M50.0 21.0 L54.6 24.7 L60.2 22.6 L63.5 27.5 L69.4 27.3 L71.0 33.0 L76.7 34.6 L76.5 40.5 L81.4 43.8 L79.3 49.4 L83.0 54.0 L79.3 58.6 L81.4 64.2 L76.5 67.5 L76.7 73.4 L71.0 75.0 L69.4 80.7 L63.5 80.5 L60.2 85.4 L54.6 83.3 L50.0 87.0 L45.4 83.3 L39.8 85.4 L36.5 80.5 L30.6 80.7 L29.0 75.0 L23.3 73.4 L23.5 67.5 L18.6 64.2 L20.7 58.6 L17.0 54.0 L20.7 49.4 L18.6 43.8 L23.5 40.5 L23.3 34.6 L29.0 33.0 L30.6 27.3 L36.5 27.5 L39.8 22.6 L45.4 24.7 Z" fill="#67e8f9" stroke="#0e7490" stroke-width="2" stroke-linejoin="round"/>
<circle cx="30" cy="62" r="4.5" fill="#06b6d4" opacity="0.5"/>
  <circle cx="70" cy="62" r="4.5" fill="#06b6d4" opacity="0.5"/>
<g>
  <ellipse cx="37" cy="52" rx="10" ry="12" fill="#fff" stroke="#1e293b" stroke-width="1.3"/>
  <ellipse cx="63" cy="52" rx="10" ry="12" fill="#fff" stroke="#1e293b" stroke-width="1.3"/>
  <circle cx="40" cy="54" r="5" fill="#1e293b"/>
  <circle cx="66" cy="54" r="5" fill="#1e293b"/>
  <circle cx="41.8" cy="52.2" r="1.7" fill="#fff"/>
  <circle cx="67.8" cy="52.2" r="1.7" fill="#fff"/>
  </g>
<path d="M44 71 q9 5 13 -2" stroke="#1e293b" stroke-width="2" fill="none" stroke-linecap="round"/>
<path d="M22 52 a28 22 0 0 1 56 0" fill="none" stroke="#155e75" stroke-width="3"/><rect x="16" y="50" width="9" height="15" rx="4" fill="#155e75"/><rect x="75" y="50" width="9" height="15" rx="4" fill="#155e75"/><path d="M25 60 q6 8 0 14" fill="none" stroke="#155e75" stroke-width="2.5"/>
    <g fill="#fde047"><path d="M80 24 l2 5 5 2 -5 2 -2 5 -2 -5 -5 -2 5 -2Z"/></g>
</svg>